<svg width="438" height="91" viewBox="0 0 438 91" fill="none" xmlns="http://www.w3.org/2000/svg">
<path d="M0 90.88V0H44.928C52.352 0 58.2827 1.36533 62.72 4.096C67.2427 6.74134 70.528 10.24 72.576 14.592C74.624 18.944 75.648 23.5947 75.648 28.544C75.648 35.6267 73.8133 41.4293 70.144 45.952C66.4747 50.3893 61.696 53.3333 55.808 54.784L61.568 60.928L79.872 90.88H54.912L37.504 59.264H22.144V90.88H0ZM38.144 16.896H22.144V42.88H38.016C42.5387 42.88 46.08 41.8133 48.64 39.68C51.2 37.5467 52.48 34.176 52.48 29.568C52.48 25.3013 51.2 22.144 48.64 20.096C46.1653 17.9627 42.6667 16.896 38.144 16.896Z" fill="white"/>
<path d="M110.195 90.88V56.192L76.531 0H101.235L113.907 23.168C115.699 26.496 117.235 29.568 118.515 32.384C119.88 35.2 121.288 38.1013 122.739 41.088C124.104 38.016 125.555 34.944 127.091 31.872C128.712 28.8 130.334 25.728 131.955 22.656L144.627 0H165.235L133.107 55.168V90.88H110.195Z" fill="white"/>
<path d="M213.127 90.88H201.215V59.88V53.5V49.5V47.08V23.28H169.591V0H245.751V23.28H213.127V47.08V51V56V59.88V90.88Z" fill="white"/>
<path d="M256.227 0H281.315L301.923 52.864C302.52 54.4 303.118 55.9787 303.715 57.6C304.398 59.136 305.038 60.672 305.635 62.208C306.232 60.5867 306.83 59.008 307.427 57.472C308.024 55.8507 308.622 54.2293 309.219 52.608L329.315 0H353.123L359.779 90.88H338.275L335.459 40.064C335.374 38.4427 335.288 36.8213 335.203 35.2C335.203 33.5787 335.16 31.9573 335.075 30.336C334.392 32.0427 333.71 33.7493 333.027 35.456C332.43 37.1627 331.79 38.912 331.107 40.704L312.035 90.88H295.139L275.555 39.552C274.958 37.9307 274.36 36.352 273.763 34.816C273.166 33.1947 272.526 31.5733 271.843 29.952C271.758 31.6587 271.63 33.3653 271.459 35.072C271.374 36.6933 271.288 38.3573 271.203 40.064L268.003 90.88H248.675L256.227 0Z" fill="white"/>
<path d="M373.5 90.88V0H437.5V17.28H396.412V36.352H426.876L425.212 53.76H396.412V73.6H437.5V90.88H373.5Z" fill="white"/>
<path d="M200.5 54V63.5L187.5 91H181.5L200.5 54Z" fill="white"/>
<path d="M214 54V63.5L227 91H233L214 54Z" fill="white"/>
</svg>
